<mxfile host="app.diagrams.net" modified="2022-02-02T18:29:43.006Z" agent="5.0 (Windows NT 10.0; Win64; x64) AppleWebKit/537.36 (KHTML, like Gecko) Chrome/98.0.4758.82 Safari/537.36" etag="Dk1E_z-AV-HUZhC3ijbR" version="16.5.3" type="github">
  <diagram id="vmopzAqvfvX_8pg5mcvZ" name="Page-1">
    <mxGraphModel dx="1718" dy="460" grid="1" gridSize="10" guides="1" tooltips="1" connect="1" arrows="1" fold="1" page="1" pageScale="1" pageWidth="850" pageHeight="1100" math="0" shadow="0">
      <root>
        <mxCell id="0" />
        <mxCell id="1" parent="0" />
        <mxCell id="B5F53p7Taw1bRaJxvmrT-1" value="" style="whiteSpace=wrap;html=1;aspect=fixed;" parent="1" vertex="1">
          <mxGeometry x="-10" width="1100" height="1100" as="geometry" />
        </mxCell>
        <mxCell id="B5F53p7Taw1bRaJxvmrT-2" value="Informasi Kamar" style="ellipse;whiteSpace=wrap;html=1;" parent="1" vertex="1">
          <mxGeometry x="260" y="110" width="140" height="70" as="geometry" />
        </mxCell>
        <mxCell id="B5F53p7Taw1bRaJxvmrT-3" value="Tipe Kamar" style="ellipse;whiteSpace=wrap;html=1;" parent="1" vertex="1">
          <mxGeometry x="480" y="70" width="140" height="70" as="geometry" />
        </mxCell>
        <mxCell id="B5F53p7Taw1bRaJxvmrT-4" value="Fasilitas Kamar" style="ellipse;whiteSpace=wrap;html=1;" parent="1" vertex="1">
          <mxGeometry x="480" y="150" width="140" height="70" as="geometry" />
        </mxCell>
        <mxCell id="B5F53p7Taw1bRaJxvmrT-5" value="Reservasi Kamar" style="ellipse;whiteSpace=wrap;html=1;" parent="1" vertex="1">
          <mxGeometry x="260" y="240" width="140" height="70" as="geometry" />
        </mxCell>
        <mxCell id="B5F53p7Taw1bRaJxvmrT-6" value="Cetak Bukti Reservasi" style="ellipse;whiteSpace=wrap;html=1;" parent="1" vertex="1">
          <mxGeometry x="260" y="365" width="140" height="70" as="geometry" />
        </mxCell>
        <mxCell id="B5F53p7Taw1bRaJxvmrT-7" value="Pelanggan" style="shape=umlActor;verticalLabelPosition=bottom;verticalAlign=top;html=1;" parent="1" vertex="1">
          <mxGeometry x="70" y="250" width="30" height="60" as="geometry" />
        </mxCell>
        <mxCell id="B5F53p7Taw1bRaJxvmrT-10" value="" style="endArrow=none;html=1;rounded=0;entryX=0;entryY=0.5;entryDx=0;entryDy=0;" parent="1" target="B5F53p7Taw1bRaJxvmrT-2" edge="1">
          <mxGeometry width="50" height="50" relative="1" as="geometry">
            <mxPoint x="110" y="250" as="sourcePoint" />
            <mxPoint x="500" y="200" as="targetPoint" />
          </mxGeometry>
        </mxCell>
        <mxCell id="B5F53p7Taw1bRaJxvmrT-11" value="" style="endArrow=none;dashed=1;html=1;dashPattern=1 3;strokeWidth=2;rounded=0;entryX=0;entryY=0.5;entryDx=0;entryDy=0;exitX=1;exitY=0.5;exitDx=0;exitDy=0;" parent="1" source="B5F53p7Taw1bRaJxvmrT-2" target="B5F53p7Taw1bRaJxvmrT-3" edge="1">
          <mxGeometry width="50" height="50" relative="1" as="geometry">
            <mxPoint x="370" y="350" as="sourcePoint" />
            <mxPoint x="420" y="300" as="targetPoint" />
          </mxGeometry>
        </mxCell>
        <mxCell id="B5F53p7Taw1bRaJxvmrT-12" value="" style="endArrow=none;dashed=1;html=1;dashPattern=1 3;strokeWidth=2;rounded=0;entryX=0;entryY=0.5;entryDx=0;entryDy=0;exitX=1;exitY=0.5;exitDx=0;exitDy=0;" parent="1" source="B5F53p7Taw1bRaJxvmrT-2" target="B5F53p7Taw1bRaJxvmrT-4" edge="1">
          <mxGeometry width="50" height="50" relative="1" as="geometry">
            <mxPoint x="370" y="250" as="sourcePoint" />
            <mxPoint x="420" y="200" as="targetPoint" />
          </mxGeometry>
        </mxCell>
        <mxCell id="B5F53p7Taw1bRaJxvmrT-13" value="" style="endArrow=none;html=1;rounded=0;entryX=0;entryY=0.5;entryDx=0;entryDy=0;" parent="1" target="B5F53p7Taw1bRaJxvmrT-5" edge="1">
          <mxGeometry width="50" height="50" relative="1" as="geometry">
            <mxPoint x="110" y="280" as="sourcePoint" />
            <mxPoint x="250" y="275" as="targetPoint" />
          </mxGeometry>
        </mxCell>
        <mxCell id="B5F53p7Taw1bRaJxvmrT-14" value="" style="endArrow=none;html=1;rounded=0;entryX=0;entryY=0.5;entryDx=0;entryDy=0;" parent="1" target="B5F53p7Taw1bRaJxvmrT-6" edge="1">
          <mxGeometry width="50" height="50" relative="1" as="geometry">
            <mxPoint x="110" y="300" as="sourcePoint" />
            <mxPoint x="270" y="370" as="targetPoint" />
            <Array as="points" />
          </mxGeometry>
        </mxCell>
        <mxCell id="EhVihP0RYLcMn976sISG-2" value="Edit Data" style="ellipse;whiteSpace=wrap;html=1;" parent="1" vertex="1">
          <mxGeometry x="710" y="110" width="140" height="70" as="geometry" />
        </mxCell>
        <mxCell id="EhVihP0RYLcMn976sISG-3" value="" style="endArrow=none;dashed=1;html=1;dashPattern=1 3;strokeWidth=2;rounded=0;entryX=0;entryY=0.5;entryDx=0;entryDy=0;exitX=1;exitY=0.5;exitDx=0;exitDy=0;" parent="1" source="B5F53p7Taw1bRaJxvmrT-4" target="EhVihP0RYLcMn976sISG-2" edge="1">
          <mxGeometry width="50" height="50" relative="1" as="geometry">
            <mxPoint x="560" y="260" as="sourcePoint" />
            <mxPoint x="610" y="210" as="targetPoint" />
          </mxGeometry>
        </mxCell>
        <mxCell id="EhVihP0RYLcMn976sISG-4" value="" style="endArrow=none;dashed=1;html=1;dashPattern=1 3;strokeWidth=2;rounded=0;entryX=0;entryY=0.5;entryDx=0;entryDy=0;exitX=1;exitY=0.5;exitDx=0;exitDy=0;" parent="1" source="B5F53p7Taw1bRaJxvmrT-3" target="EhVihP0RYLcMn976sISG-2" edge="1">
          <mxGeometry width="50" height="50" relative="1" as="geometry">
            <mxPoint x="560" y="260" as="sourcePoint" />
            <mxPoint x="710" y="140" as="targetPoint" />
          </mxGeometry>
        </mxCell>
        <mxCell id="EhVihP0RYLcMn976sISG-6" value="Admin" style="shape=umlActor;verticalLabelPosition=bottom;verticalAlign=top;html=1;outlineConnect=0;" parent="1" vertex="1">
          <mxGeometry x="970" y="240" width="30" height="60" as="geometry" />
        </mxCell>
        <mxCell id="EhVihP0RYLcMn976sISG-7" value="" style="endArrow=none;html=1;rounded=0;exitX=1;exitY=0.5;exitDx=0;exitDy=0;" parent="1" source="EhVihP0RYLcMn976sISG-2" target="EhVihP0RYLcMn976sISG-6" edge="1">
          <mxGeometry width="50" height="50" relative="1" as="geometry">
            <mxPoint x="770" y="590" as="sourcePoint" />
            <mxPoint x="820" y="540" as="targetPoint" />
          </mxGeometry>
        </mxCell>
        <mxCell id="EhVihP0RYLcMn976sISG-8" value="USE CASE WEBSITE HOTEL" style="text;html=1;strokeColor=none;fillColor=none;align=center;verticalAlign=middle;whiteSpace=wrap;rounded=0;" parent="1" vertex="1">
          <mxGeometry y="10" width="190" height="30" as="geometry" />
        </mxCell>
      </root>
    </mxGraphModel>
  </diagram>
</mxfile>
